TITLE ""
FILE "P1Q_t_0359-0368.mp3" MP3
  TRACK 01 AUDIO
    TITLE "P1Q_t_0359-0368_01"
    INDEX 01 00:00:00
  TRACK 02 AUDIO
    TITLE "P1Q_t_0359-0368_02"
    INDEX 01 00:01:29
  TRACK 03 AUDIO
    TITLE "P1Q_t_0359-0368_03"
    INDEX 01 00:01:51
  TRACK 04 AUDIO
    TITLE "P1Q_t_0359-0368_04"
    INDEX 01 00:05:53
  TRACK 05 AUDIO
    TITLE "P1Q_t_0359-0368_05"
    INDEX 01 00:05:72
  TRACK 06 AUDIO
    TITLE "P1Q_t_0359-0368_06"
    INDEX 01 00:10:64
  TRACK 07 AUDIO
    TITLE "P1Q_t_0359-0368_07"
    INDEX 01 00:11:36
  TRACK 08 AUDIO
    TITLE "P1Q_t_0359-0368_08"
    INDEX 01 00:12:70
  TRACK 09 AUDIO
    TITLE "P1Q_t_0359-0368_09"
    INDEX 01 00:13:17
  TRACK 10 AUDIO
    TITLE "P1Q_t_0359-0368_10"
    INDEX 01 00:16:52
  TRACK 11 AUDIO
    TITLE "P1Q_t_0359-0368_11"
    INDEX 01 00:17:05
  TRACK 12 AUDIO
    TITLE "P1Q_t_0359-0368_12"
    INDEX 01 00:22:31
  TRACK 13 AUDIO
    TITLE "P1Q_t_0359-0368_13"
    INDEX 01 00:23:07
  TRACK 14 AUDIO
    TITLE "P1Q_t_0359-0368_14"
    INDEX 01 00:24:44
  TRACK 15 AUDIO
    TITLE "P1Q_t_0359-0368_15"
    INDEX 01 00:24:62
  TRACK 16 AUDIO
    TITLE "P1Q_t_0359-0368_16"
    INDEX 01 00:30:72
  TRACK 17 AUDIO
    TITLE "P1Q_t_0359-0368_17"
    INDEX 01 00:31:19
  TRACK 18 AUDIO
    TITLE "P1Q_t_0359-0368_18"
    INDEX 01 00:36:67
  TRACK 19 AUDIO
    TITLE "P1Q_t_0359-0368_19"
    INDEX 01 00:37:39
  TRACK 20 AUDIO
    TITLE "P1Q_t_0359-0368_20"
    INDEX 01 00:38:44
  TRACK 21 AUDIO
    TITLE "P1Q_t_0359-0368_21"
    INDEX 01 00:38:66
  TRACK 22 AUDIO
    TITLE "P1Q_t_0359-0368_22"
    INDEX 01 00:40:04
  TRACK 23 AUDIO
    TITLE "P1Q_t_0359-0368_23"
    INDEX 01 00:40:24
  TRACK 24 AUDIO
    TITLE "P1Q_t_0359-0368_24"
    INDEX 01 00:45:23
  TRACK 25 AUDIO
    TITLE "P1Q_t_0359-0368_25"
    INDEX 01 00:46:01
  TRACK 26 AUDIO
    TITLE "P1Q_t_0359-0368_26"
    INDEX 01 00:47:14
  TRACK 27 AUDIO
    TITLE "P1Q_t_0359-0368_27"
    INDEX 01 00:47:35
  TRACK 28 AUDIO
    TITLE "P1Q_t_0359-0368_28"
    INDEX 01 00:49:60
  TRACK 29 AUDIO
    TITLE "P1Q_t_0359-0368_29"
    INDEX 01 00:50:04
  TRACK 30 AUDIO
    TITLE "P1Q_t_0359-0368_30"
    INDEX 01 00:55:35
  TRACK 31 AUDIO
    TITLE "P1Q_t_0359-0368_31"
    INDEX 01 00:56:05
  TRACK 32 AUDIO
    TITLE "P1Q_t_0359-0368_32"
    INDEX 01 00:57:30
  TRACK 33 AUDIO
    TITLE "P1Q_t_0359-0368_33"
    INDEX 01 00:57:51
  TRACK 34 AUDIO
    TITLE "P1Q_t_0359-0368_34"
    INDEX 01 01:01:26
  TRACK 35 AUDIO
    TITLE "P1Q_t_0359-0368_35"
    INDEX 01 01:01:45
  TRACK 36 AUDIO
    TITLE "P1Q_t_0359-0368_36"
    INDEX 01 01:06:66
  TRACK 37 AUDIO
    TITLE "P1Q_t_0359-0368_37"
    INDEX 01 01:07:38
  TRACK 38 AUDIO
    TITLE "P1Q_t_0359-0368_38"
    INDEX 01 01:08:47
  TRACK 39 AUDIO
    TITLE "P1Q_t_0359-0368_39"
    INDEX 01 01:08:69
  TRACK 40 AUDIO
    TITLE "P1Q_t_0359-0368_40"
    INDEX 01 01:10:09
  TRACK 41 AUDIO
    TITLE "P1Q_t_0359-0368_41"
    INDEX 01 01:10:31
  TRACK 42 AUDIO
    TITLE "P1Q_t_0359-0368_42"
    INDEX 01 01:15:67
  TRACK 43 AUDIO
    TITLE "P1Q_t_0359-0368_43"
    INDEX 01 01:16:39
  TRACK 44 AUDIO
    TITLE "P1Q_t_0359-0368_44"
    INDEX 01 01:17:58
  TRACK 45 AUDIO
    TITLE "P1Q_t_0359-0368_45"
    INDEX 01 01:18:06
  TRACK 46 AUDIO
    TITLE "P1Q_t_0359-0368_46"
    INDEX 01 01:19:04
  TRACK 47 AUDIO
    TITLE "P1Q_t_0359-0368_47"
    INDEX 01 01:19:27
  TRACK 48 AUDIO
    TITLE "P1Q_t_0359-0368_48"
    INDEX 01 01:23:31
  TRACK 49 AUDIO
    TITLE "P1Q_t_0359-0368_49"
    INDEX 01 01:24:03
  TRACK 50 AUDIO
    TITLE "P1Q_t_0359-0368_50"
    INDEX 01 01:25:34
  TRACK 51 AUDIO
    TITLE "P1Q_t_0359-0368_51"
    INDEX 01 01:25:58
  TRACK 52 AUDIO
    TITLE "P1Q_t_0359-0368_52"
    INDEX 01 01:28:50
  TRACK 53 AUDIO
    TITLE "P1Q_t_0359-0368_53"
    INDEX 01 01:28:70
  TRACK 54 AUDIO
    TITLE "P1Q_t_0359-0368_54"
    INDEX 01 01:34:29
  TRACK 55 AUDIO
    TITLE "P1Q_t_0359-0368_55"
    INDEX 01 01:35:01
  TRACK 56 AUDIO
    TITLE "P1Q_t_0359-0368_56"
    INDEX 01 01:35:72
  TRACK 57 AUDIO
    TITLE "P1Q_t_0359-0368_57"
    INDEX 01 01:36:18
  TRACK 58 AUDIO
    TITLE "P1Q_t_0359-0368_58"
    INDEX 01 01:37:22
  TRACK 59 AUDIO
    TITLE "P1Q_t_0359-0368_59"
    INDEX 01 01:37:41
  TRACK 60 AUDIO
    TITLE "P1Q_t_0359-0368_60"
    INDEX 01 01:41:37
